<svg xmlns="http://www.w3.org/2000/svg" viewBox="0 0 64 64" role="img" aria-label="HCS">
  <circle cx="32" cy="32" r="32" fill="#007f7c"/>
  <g fill="none" stroke="#fff" stroke-width="2.4" stroke-linecap="round" stroke-linejoin="round">
    <path d="M32 12v36"/>
    <path d="M28 12h8"/>
    <path d="M32 16c-7 4-9 10-4 14 5 4 9 2 9-2 0-5-6-6-9-3"/>
    <path d="M32 30c7 4 9 10 4 14-5 4-9 2-9-2 0-5 6-6 9-3"/>
    <path d="M22 20c4-6 10-7 14-4"/>
    <path d="M42 20c-4-6-10-7-14-4"/>
  </g>
  <circle cx="32" cy="16" r="2.2" fill="#fff"/>
</svg>
